<?xml version="1.0" standalone="no"?>
<!DOCTYPE svg PUBLIC "-//W3C//DTD SVG 20010904//EN"
 "http://www.w3.org/TR/2001/REC-SVG-20010904/DTD/svg10.dtd">
<svg version="1.0" xmlns="http://www.w3.org/2000/svg"
 width="512.000000pt" height="512.000000pt" viewBox="0 0 512.000000 512.000000"
 preserveAspectRatio="xMidYMid meet">
<metadata>
Created by potrace 1.11, written by Peter Selinger 2001-2013
</metadata>
<g transform="translate(0.000000,512.000000) scale(0.100000,-0.100000)"
fill="#000000" stroke="none">
<path d="M390 5104 c-30 -8 -80 -26 -110 -41 -72 -35 -188 -151 -223 -223 -61
-126 -57 23 -57 -2280 0 -2303 -4 -2154 57 -2280 35 -72 151 -188 223 -223
126 -61 -23 -57 2280 -57 2303 0 2154 -4 2280 57 72 35 188 151 223 223 61
126 57 -23 57 2280 0 2303 4 2154 -57 2280 -35 72 -151 188 -223 223 -127 61
23 57 -2285 56 -1816 0 -2118 -2 -2165 -15z m2360 -1028 c134 -26 188 -43 300
-98 90 -45 117 -64 190 -137 96 -97 145 -179 180 -301 29 -105 36 -255 16
-350 -50 -233 -247 -468 -448 -534 -29 -9 -21 -24 20 -37 218 -71 418 -231
502 -403 57 -115 73 -201 67 -361 -17 -464 -265 -719 -787 -811 -94 -17 -164
-19 -648 -19 l-544 0 -23 27 c-18 21 -25 44 -30 100 -3 40 -5 701 -3 1468 3
1477 2 1427 47 1455 36 22 76 24 566 21 418 -3 525 -7 595 -20z"/>
<path d="M1930 3265 l0 -497 333 5 c299 3 338 6 392 24 294 98 440 333 381
614 -20 90 -54 155 -114 211 -60 56 -110 83 -210 110 -70 20 -108 22 -429 26
l-353 4 0 -497z"/>
<path d="M1930 1890 l0 -542 398 4 c380 4 400 5 467 27 106 35 178 77 239 140
95 101 145 233 146 387 0 152 -45 272 -136 360 -66 63 -125 95 -239 130 l-90
28 -392 4 -393 3 0 -541z"/>
</g>
</svg>
